<svg width="512" height="512" viewBox="0 0 512 512" fill="none" xmlns="http://www.w3.org/2000/svg">
  <!-- Background circle with gradient matching favicon style -->
  <defs>
    <linearGradient id="bgGradient" x1="0%" y1="0%" x2="100%" y2="100%">
      <stop offset="0%" style="stop-color:#10B981;stop-opacity:1" />
      <stop offset="100%" style="stop-color:#059669;stop-opacity:1" />
    </linearGradient>
  </defs>
  
  <!-- Background circle -->
  <circle cx="256" cy="256" r="256" fill="url(#bgGradient)"/>
  
  <!-- Telegram paper plane icon - simplified and centered -->
  <g transform="translate(156, 156)">
    <!-- Main paper plane shape -->
    <path d="M100 0L200 100L150 150L100 100L50 150L100 0Z" fill="white"/>
    
    <!-- Paper plane outline -->
    <path d="M100 0L200 100L150 150L100 100L50 150L100 0Z" stroke="white" stroke-width="6" fill="none"/>
    
    <!-- Inner fold lines for paper effect -->
    <path d="M100 0L150 50L100 100" stroke="#10B981" stroke-width="3" fill="none" opacity="0.7"/>
    <path d="M150 50L200 100L150 150" stroke="#10B981" stroke-width="3" fill="none" opacity="0.7"/>
    <path d="M100 100L50 150" stroke="#10B981" stroke-width="3" fill="none" opacity="0.7"/>
  </g>
  
  <!-- Small crypto trend indicator in bottom right corner -->
  <g transform="translate(380, 380)">
    <circle cx="56" cy="56" r="40" fill="white" opacity="0.15"/>
    <path d="M36 76L44 68L52 72L72 56" stroke="white" stroke-width="4" stroke-linecap="round" stroke-linejoin="round" fill="none"/>
    <path d="M64 56H72V64" stroke="white" stroke-width="4" stroke-linecap="round" stroke-linejoin="round" fill="none"/>
  </g>
</svg>
